<svg xmlns="http://www.w3.org/2000/svg" width="256" height="256"><path fill="#1976D2" fill-opacity=".016" fill-rule="evenodd" d="M0 128.004v128.004l128.25-.254 128.25-.254.254-127.75L257.008 0H0zm.485.496c0 70.4.119 99.053.265 63.672s.146-92.98 0-128S.485 58.1.485 128.5"/><path fill="#1976D2" fill-opacity=".33" fill-rule="evenodd" d="M33.123 65.935C31.955 68.65 31 71.35 31 71.935 31 72.642 25.794 73 15.5 73H0v90.07l10.25-.285 10.25-.285.274-17.327.274-17.326 13.548 17.576L48.143 163h12.502c10.24 0 12.443-.255 12.178-1.409-.178-.775-6.764-9.16-14.636-18.634l-14.313-17.226 4.313-2.394c2.372-1.317 5.769-4.069 7.548-6.115s3.242-3.079 3.25-2.292c.008.786 1.534-.345 3.392-2.515 2.185-2.553 5.449-4.785 9.25-6.325 9.267-3.756 14.89-8.453 18.66-15.59 4.561-8.633 1.387-28.587-4.663-29.316-1.443-.174-2.624.129-2.624.673 0 2.181-5.346 7.121-11.961 11.051-5.18 3.077-7.677 5.324-9.642 8.678l-2.653 4.526-2.122-3.238c-3.144-4.797-7.686-9.031-12.997-12.115-3.173-1.843-5.2-3.89-6.186-6.25C36.633 62.579 35.81 61 35.61 61s-1.319 2.221-2.487 4.935M73.233 85.3C63.216 96.447 62.443 97.553 61.562 102c-.661 3.338-.552 3.26 2.348-1.672 1.673-2.845 6.005-8.695 9.626-13 5.806-6.903 9.119-11.431 8.249-11.278-.157.028-4.005 4.19-8.552 9.25M21 100.884V112h6.077c5.383 0 6.411-.334 9-2.923 2.454-2.455 2.923-3.728 2.923-7.944 0-7.702-2.8-10.398-11.365-10.944L21 89.767zm59.29 7.09c-10.939 5.535-15.622 13.458-15.678 26.526-.026 5.996.48 9.127 2.019 12.5 4.629 10.146 12.476 15.918 22.764 16.744 6.986.56 11.638-.598 16.996-4.235l3.49-2.368.309 2.68c.302 2.608.507 2.687 7.798 2.978 13.123.523 12.006 2.615 12.048-22.568l.037-21.731 4.213 7.819c2.318 4.3 7.658 14.2 11.867 22l7.654 14.181h13.643l4.206-9.387c2.314-5.164 5.034-11.403 6.045-13.866l1.838-4.478 6.338 14.115L192.216 163l6.642-.017 6.642-.017 3.623-6.733C223.981 128.618 235 107.849 235 107.461c0-.254-5.062-.458-11.25-.453l-11.25.007-4.826 11.243c-2.655 6.183-5.606 12.732-6.558 14.554l-1.732 3.312-6.408-14.601-6.409-14.602-7.033.29-7.034.289-5.932 13.75c-3.263 7.563-6.201 13.75-6.528 13.75s-3.448-6.233-6.936-13.851l-6.342-13.85-13.539-.65c-22.888-1.097-23.223-1.07-23.223 1.893v2.542l-4.606-2.699c-3.503-2.053-6.316-2.801-11.75-3.126-6.476-.387-7.724-.134-13.354 2.715M92 123.752c-4.54 2.267-7.459 7.988-6.55 12.836 1.559 8.306 10.185 12.577 17.955 8.89 8.843-4.196 8.836-17.763-.012-21.962-4.158-1.973-7.093-1.912-11.393.236M217 183c0 10 .25 12 1.5 12 .954 0 1.5-.959 1.5-2.635v-2.635l2.073 2.635c1.139 1.449 3.024 2.635 4.187 2.635 2.016 0 1.99-.13-.573-2.805-3.299-3.443-3.303-3.698-.136-7.851 2.386-3.128 2.424-3.344.583-3.344-1.082 0-2.89 1.238-4.019 2.75l-2.052 2.75-.031-7.75c-.026-6.208-.33-7.75-1.532-7.75-1.25 0-1.5 2-1.5 12m-38.151-8c-.826 1.925-2.344 5.863-3.373 8.75s-2.142 5.25-2.473 5.25-1.209-1.687-1.951-3.75c-2.609-7.248-5.108-12.527-5.665-11.97-.31.31-1.591 5.323-2.848 11.142-1.792 8.301-1.998 10.578-.958 10.578 1.237 0 3.382-5.628 3.429-9 .011-.825.401-2.1.866-2.834.579-.914 1.581.749 3.182 5.286 1.595 4.518 2.803 6.528 3.806 6.333.807-.157 2.621-3.431 4.029-7.276l2.56-6.991 1.466 7.241c1.136 5.611 1.852 7.241 3.185 7.241 1.597 0 1.616-.441.258-6.25-.804-3.437-2.035-8.725-2.736-11.75l-1.275-5.5zM251 177.917c0 2.416-.432 3.083-2 3.083-1.1 0-2 .45-2 1s.9 1 2 1c1.778 0 2 .667 2 6 0 4.667.333 6 1.5 6 1.164 0 1.5-1.324 1.5-5.917 0-3.796.448-6.098 1.25-6.424.927-.376.953-.72.101-1.333-.632-.454-1.307-1.916-1.5-3.248-.538-3.709-2.851-3.84-2.851-.161m-61.849 5.423c-2.535 2.698-2.764 6.339-.594 9.437 1.334 1.906 2.475 2.223 8 2.223H203v-13.785l-5.849-.082c-4.866-.069-6.211.302-8 2.207M207 188.118c0 5.451.312 6.882 1.5 6.882 1.078 0 1.5-1.102 1.5-3.918 0-5.209.822-7.082 3.107-7.082 1.041 0 1.893-.647 1.893-1.437 0-1.02-1.163-1.422-4-1.382l-4 .055zm25.174-4.804c-2.556 2.722-2.794 6.356-.617 9.463 1.242 1.775 2.529 2.223 6.377 2.223 3.099 0 5.273-.544 6.086-1.524 1.788-2.155.449-3.011-2.563-1.638-3.456 1.574-5.964 1.461-7.457-.338-1.085-1.308-.396-1.5 5.378-1.5 6.004 0 6.622-.191 6.622-2.045 0-1.125-1.105-3.15-2.455-4.5-3.247-3.248-8.392-3.312-11.371-.141M191.2 185.2c-.66.66-1.2 2.145-1.2 3.3s.54 2.64 1.2 3.3 2.145 1.2 3.3 1.2 2.64-.54 3.3-1.2 1.2-2.145 1.2-3.3-.54-2.64-1.2-3.3-2.145-1.2-3.3-1.2-2.64.54-3.3 1.2m42.842.249c-1.132 1.364-.719 1.551 3.419 1.551 3.317 0 4.585-.369 4.295-1.25-.621-1.893-6.212-2.111-7.714-.301"/><path fill="#1976D2" fill-opacity=".465" fill-rule="evenodd" d="M82.63 64.049c-.991 1.677-5.7 5.615-10.466 8.75-6.494 4.273-9.165 6.703-10.664 9.701-1.1 2.2-2.101 4.176-2.225 4.392-.124.215-1.146-.685-2.273-2L54.955 82.5l.617 3.663c.34 2.015.305 4.648-.076 5.851-.663 2.088-.786 2.038-2.684-1.083-1.094-1.799-4.741-6.344-8.104-10.101-10.109-11.291-9.813-7.632.339 4.18 4.687 5.454 8.079 11.159 9.506 15.985l.737 2.494-2.475-2.382c-1.361-1.31-5.297-3.663-8.746-5.229-5.181-2.352-6.138-2.545-5.508-1.112 2.564 5.83.811 13.894-3.525 16.215-1.069.572-4.665 1.324-7.99 1.672l-6.046.632V88.722l5.75.546c3.163.301 6.539.862 7.504 1.248 1.466.586 1.345-.013-.738-3.658-1.685-2.947-2.496-5.896-2.504-9.108L31 73H0v89.07l10.25-.285 10.25-.285.5-16.866.5-16.866 13.297 17.116L48.093 162h25.075l-3.003-3.75c-1.652-2.062-8.417-10.26-15.033-18.216l-12.031-14.466 4.685-2.534c2.641-1.429 6.217-4.614 8.199-7.303 2.332-3.164 3.626-4.246 3.845-3.216.257 1.21.754 1.012 2.258-.9 1.06-1.348 5.637-4.222 10.17-6.386 10.37-4.952 13.921-7.941 17.164-14.449 3.33-6.681 3.469-14.801.403-23.53-2.496-7.107-4.39-7.95-7.195-3.201m-8.042 18.987c-9.172 9.6-13.595 16.252-13.57 20.41.018 2.944.118 2.874 2.784-1.946 1.521-2.75 6.013-8.968 9.983-13.818C80.491 79.489 83.635 75 82.668 75c-.222 0-3.858 3.616-8.08 8.036m5.856 25.338c-10.547 4.911-16.028 15.166-15.231 28.499.542 9.075 2.819 14.116 8.825 19.542 5.71 5.159 10.256 6.913 17.962 6.931 6.763.015 13.069-2.312 16.067-5.929 1.32-1.593 1.473-1.501 1.941 1.177l.507 2.906 9.224.287 9.223.288.269-22.788.269-22.787 10.387 19.5c15.236 28.606 13.993 27 20.896 27h5.755l4.21-9.25c2.315-5.088 5.263-11.67 6.551-14.628l2.341-5.378 6.496 14.378 6.496 14.378 6.093.295 6.092.296 8.735-16.296c4.804-8.962 11.37-21.098 14.591-26.968S234 108.669 234 108.077c0-1.229-18.822-1.515-20.565-.312-.585.404-3.735 6.913-7 14.465-3.264 7.551-6.385 13.592-6.935 13.423s-3.73-6.572-7.066-14.23l-6.065-13.923-5.769-.302c-3.173-.167-6.334.166-7.024.739s-3.881 7.122-7.09 14.553c-3.209 7.43-6.151 13.51-6.538 13.51s-3.602-6.412-7.145-14.25l-6.442-14.25-18.181-.273-18.18-.272v5.181l-2.75-1.915c-7.051-4.91-18.529-5.701-26.806-1.847m10.319 15.191C87.127 125.538 85 129.897 85 135.374c0 14.434 21.238 16.598 25.021 2.549 2.937-10.909-9.09-19.875-19.258-14.358M218 183c0 6.987.384 11.881.906 11.558.498-.308.671-1.46.383-2.559-.733-2.806 1.342-2.491 3.303.501.901 1.375 2.284 2.5 3.074 2.5 1.014 0 .656-1.022-1.22-3.481l-2.655-3.482 2.646-3.144c3.551-4.221 2.177-5.264-1.506-1.142-1.596 1.787-3.126 3.249-3.398 3.249s-.368-3.403-.211-7.562-.076-7.786-.518-8.059S218 176.335 218 183m-54.436-1.25c-.94 4.813-1.95 9.762-2.245 11s-.099 2.25.436 2.25c.534 0 1.547-2.812 2.25-6.25.703-3.437 1.588-6.601 1.967-7.03s1.93 2.383 3.447 6.25 3.113 7.03 3.547 7.03 1.815-2.812 3.067-6.25c1.253-3.437 2.611-6.631 3.019-7.096.407-.466 1.427 2.161 2.265 5.837 1.475 6.465 2.238 8.299 3.089 7.426.551-.567-3.737-20.917-4.408-20.917-.293 0-1.811 3.6-3.375 8-1.563 4.4-3.209 8-3.657 8-.449 0-2.259-3.825-4.023-8.5-1.765-4.675-3.312-8.5-3.439-8.5s-1 3.938-1.94 8.75M251 178.5c0 1.556-.567 2.5-1.5 2.5-.825 0-1.5.45-1.5 1s.675 1 1.5 1c1.167 0 1.5 1.333 1.5 6 0 3.333.444 6 1 6s1-2.667 1-6c0-4.667.333-6 1.5-6 .825 0 1.5-.45 1.5-1s-.675-1-1.5-1c-.933 0-1.5-.944-1.5-2.5 0-1.375-.45-2.5-1-2.5s-1 1.125-1 2.5m-61 4.5c-2.18 2.18-2.63 6.953-.952 10.09.886 1.655 1.972 1.922 7 1.724l5.952-.235v-6.79c0-6.135-1.099-8.791-2.292-5.539-.366 1-.723 1-1.783 0-1.974-1.862-5.662-1.513-7.925.75m17 5c0 4 .429 7 1 7 .55 0 1-1.955 1-4.345 0-4.221 2.716-8.605 4.331-6.991.368.368.669-.081.669-.997 0-1.942-2.07-2.197-3.8-.467-.933.933-1.2.933-1.2 0 0-.66-.45-1.2-1-1.2-.571 0-1 3-1 7m26-5c-2.554 2.554-2.645 8.106-.171 10.345 2.281 2.065 8.507 2.16 10.171.155 1.016-1.225.958-1.5-.319-1.5-.859 0-1.841.45-2.181 1-.933 1.51-4.158 1.2-5.929-.571-2.702-2.703-1.765-3.429 4.429-3.429 5.258 0 6-.238 6-1.927 0-2.456-4.548-6.073-7.635-6.073-1.301 0-3.265.9-4.365 2m-41.25 1.08c-3.504 2.041-1.263 9.92 2.821 9.92 2.031 0 5.429-3.659 5.429-5.845 0-2.137-3.005-5.169-5.079-5.125-.781.017-2.208.489-3.171 1.05m43 0c-3.132 1.825-1.855 2.92 3.405 2.92 5.092 0 5.133-.025 3.345-2-1.989-2.197-4.07-2.481-6.75-.92"/><path fill="#1976D2" fill-opacity=".344" fill-rule="evenodd" d="M83.876 63.231c-.656 1.227-2.251 3.063-3.544 4.08s-2.052 2.333-1.687 2.924c.395.639.194.783-.498.356-.638-.395-1.402-.089-1.697.679s-1.082 1.397-1.749 1.397c-2.003 0-9.298 5.005-11.646 7.99-1.207 1.535-2.458 4.106-2.779 5.715-.546 2.727-.677 2.8-1.931 1.086-1.223-1.674-1.346-1.528-1.36 1.601-.015 3.194-1.438 6.989-2.217 5.912-.188-.259-1.556-2.286-3.04-4.504-1.485-2.218-4.576-5.818-6.869-8-3.974-3.78-3.927-3.67.988 2.339 5.464 6.678 7.868 10.715 9.249 15.528 1.193 4.16.106 5.192-2.277 2.163-1.112-1.414-4.642-3.893-7.844-5.51l-5.821-2.938.909 3.17c1.2 4.186-.349 9.762-3.548 12.766-2.098 1.972-3.608 2.369-9.261 2.435l-6.754.08-.282-11.833-.283-11.834 6.875.334 6.874.333-1.82-4c-1.001-2.2-1.83-5.687-1.842-7.75L30 74H0v87h20v-17c0-9.35.337-16.989.75-16.976s3.225 3.235 6.25 7.16a2168 2168 0 0 0 11.813 15.148c3.473 4.406 6.9 8.848 7.617 9.871 1.168 1.668 2.55 1.831 13.334 1.579l12.031-.282-14.364-17c-7.9-9.35-14.379-17.328-14.398-17.73-.018-.401 1.654-1.599 3.717-2.662 7.451-3.84 13.25-12.554 13.25-19.911 0-2.713 5.519-11.425 10.507-16.586 1.653-1.711 5.333-5.699 8.176-8.861 5.337-5.936 6.32-6.637 6.313-4.5-.004 1.205-12.901 18.16-16.925 22.25-1.876 1.907-6.155 10.544-7.518 15.175-.557 1.894-.191 1.765 2.84-1 1.914-1.746 6.278-4.251 9.697-5.566 10.875-4.183 17.45-12.426 18.625-23.348.399-3.719-.113-6.586-2.199-12.305C88.021 64.355 86.409 61 85.934 61s-1.401 1.004-2.058 2.231m-1.003 44.273c-5.557 1.783-11.828 7.738-15.06 14.301-1.868 3.791-2.313 6.332-2.313 13.195 0 7.588.314 9.037 2.923 13.5 4.135 7.074 9.124 11.312 15.494 13.164 7.579 2.204 15.026 1.292 21.298-2.607 2.705-1.681 5.113-3.057 5.351-3.057.239 0 .434 1.125.434 2.5 0 2.471.1 2.5 8.5 2.5h8.5v-22.5c0-13.083.386-22.5.923-22.5.508 0 3.259 4.388 6.113 9.75 2.855 5.363 8.354 15.713 12.22 23l7.03 13.25h12.361l4.734-10.75c2.604-5.912 5.529-12.254 6.501-14.093l1.766-3.343 1.495 2.343c.822 1.289 3.714 7.623 6.426 14.077l4.931 11.734 6.208.016 6.208.016 2.395-4.25c1.317-2.338 6.796-12.575 12.175-22.75s10.865-20.412 12.189-22.75l2.409-4.25h-20.796l-4.483 9.75c-2.465 5.362-5.343 11.886-6.394 14.496s-2.383 4.748-2.96 4.75-1.648-1.683-2.381-3.746-3.588-8.588-6.347-14.5L185.707 108l-6.104.008-6.103.008-5.385 11.742c-2.962 6.458-5.826 13-6.364 14.537s-1.442 2.641-2.009 2.452c-.566-.188-3.735-6.621-7.042-14.295s-6.055-14.019-6.106-14.101c-.052-.081-8.315-.477-18.362-.878-16.427-.656-18.207-.571-17.661.851 1.231 3.208-.634 3.547-5.532 1.006-6.13-3.18-15.534-3.955-22.166-1.826m8.627 15.357c-4.763 2.941-6.704 5.74-7.179 10.348-.566 5.489 2.116 10.66 6.764 13.039 6.824 3.494 14.006 1.576 17.941-4.79 6.895-11.157-6.522-25.395-17.526-18.597M218.382 183.5c.002 6.6.164 9.17.359 5.711.196-3.459.195-8.859-.003-12s-.358-.311-.356 6.289m-54.857.007c-1.026 5.217-1.61 9.741-1.298 10.054.313.312 1.14-2.63 1.838-6.539.924-5.169 1.634-6.968 2.603-6.596 1.64.629 1.641.538.027-3.3-1.283-3.051-1.337-2.942-3.17 6.381m14.703-4.719c-.81 2.77-.8 3.287.04 2.039 1.019-1.515 1.233-1.524 2.278-.095.937 1.282 1.066.985.688-1.59-.663-4.517-1.752-4.646-3.006-.354m72.022 2c-2.757.43-3 2.212-.302 2.212 1.636 0 2.006.839 2.315 5.25l.367 5.25.185-5.25c.138-3.918.566-5.25 1.685-5.25.825 0 1.5-.398 1.5-.883 0-1.126-2.843-1.783-5.75-1.329m-42.658 4.905c.259 8.454.718 9.957 1.321 4.33.486-4.533 1.018-5.693 3.087-6.735 1.73-.871 1.979-1.263.809-1.273-.93-.008-1.986.462-2.346 1.045-.421.681-1.077.483-1.837-.557-.964-1.319-1.155-.731-1.034 3.19m15.908-1.904c-3.451 4.474-3.525 4.884-1.225 6.802 1.224 1.021 1.663 1.215.975.432-1.817-2.069-1.541-4.085.921-6.705 1.193-1.27 1.981-2.493 1.75-2.716s-1.321.761-2.421 2.187m11.579-1.524c-1.332.679-2.635 1.91-2.896 2.735-.352 1.112.074 1.013 1.648-.385 1.612-1.43 3.032-1.743 5.896-1.298 3.667.57 3.703.546 1.273-.83-3.068-1.738-2.958-1.734-5.921-.222m-44.079.562c0 .455 1.35.628 3 .386s3-.614 3-.826c0-.213-1.35-.387-3-.387s-3 .372-3 .827m-14.541 1.24c-.363.586-.445 1.281-.183 1.543s.743-.218 1.069-1.067c.676-1.762.1-2.072-.886-.476m23.62.516c.048 1.165.285 1.402.604.605.289-.722.253-1.585-.079-1.917s-.568.258-.525 1.312M243 186.5c0 .825.436 1.5.969 1.5s.709-.675.393-1.5c-.317-.825-.753-1.5-.969-1.5s-.393.675-.393 1.5m-60.921 1.083c.048 1.165.285 1.402.604.605.289-.722.253-1.585-.079-1.917s-.568.258-.525 1.312m6 1c.048 1.165.285 1.402.604.605.289-.722.253-1.585-.079-1.917s-.568.258-.525 1.312m12 0c.048 1.165.285 1.402.604.605.289-.722.253-1.585-.079-1.917s-.568.258-.525 1.312m30.921-.024c0 .857.45 1.281 1 .941s1-1.041 1-1.559-.45-.941-1-.941-1 .702-1 1.559m-58.213 2.262c-1.155.458-1.435 1.131-.858 2.064.681 1.103 1.089.949 1.999-.75.628-1.174 1.014-2.103.857-2.065s-1.056.377-1.998.751m16.213.989c0 2.366 7.162 4.354 8.411 2.334.291-.47-.599-.64-1.976-.376-1.554.297-3.251-.196-4.47-1.3-1.081-.978-1.965-1.274-1.965-.658m11.079.773c.048 1.165.285 1.402.604.605.289-.722.253-1.585-.079-1.917s-.568.258-.525 1.312M232 191.81c0 2.633 6.931 4.16 10 2.203 1.028-.655.313-.766-2.273-.35-2.836.456-4.263.162-5.75-1.183-1.087-.985-1.977-1.286-1.977-.67m-7.5 2.19c.34.55.816 1 1.059 1s.441-.45.441-1-.477-1-1.059-1-.781.45-.441 1"/></svg>